<?xml version="1.0" encoding="utf-8"?>
<!-- Generator: Adobe Illustrator 23.0.2, SVG Export Plug-In . SVG Version: 6.00 Build 0)  -->
<svg version="1.1" id="Layer_1" xmlns="http://www.w3.org/2000/svg" xmlns:xlink="http://www.w3.org/1999/xlink" x="0px" y="0px"
	 viewBox="0 0 21 21" style="enable-background:new 0 0 21 21;" xml:space="preserve">
<style type="text/css">
	.st0{fill:#25A805;}
</style>
<title>Artboard 36</title>
<path class="st0" d="M18.1,5.1c0.2-0.5,0.6-0.9,1.2-0.9c0.2,0,0.4,0,0.6,0.1c0.6,0.3,0.8,0.9,0.7,1.5L17.9,14
	c-0.2,0.5-0.6,0.9-1.2,0.9H7.4c-0.5,0-1-0.4-1.2-0.9L2.7,3h-1C1.1,3,0.5,2.4,0.5,1.8s0.6-1.2,1.2-1.2h1.9c0.5,0,1,0.4,1.2,0.9
	l3.5,11h7.5L18.1,5.1z M10.5,18.6c0-1-0.8-1.9-1.9-1.9s-1.9,0.8-1.9,1.9c0,1,0.8,1.9,1.9,1.9S10.5,19.7,10.5,18.6z M15.5,20.5
	c1,0,1.9-0.8,1.9-1.9c0-1-0.8-1.9-1.9-1.9s-1.9,0.8-1.9,1.9C13.6,19.7,14.5,20.5,15.5,20.5z M11.1,9.8c0.5,0.5,1.3,0.6,1.8,0.1
	c0,0,0.1-0.1,0.1-0.1l2.8-3.2c0.4-0.4,0.4-1.1-0.1-1.4c-0.2-0.2-0.4-0.3-0.7-0.3h-1.8V1.8c0-0.7-0.6-1.2-1.2-1.2
	c-0.7,0-1.2,0.6-1.2,1.2v3.1H9c-0.6,0-1,0.5-1,1c0,0.3,0.1,0.5,0.3,0.7L11.1,9.8z"/>
</svg>
