<svg height='300px' width='300px'  fill="#000000" xmlns="http://www.w3.org/2000/svg" xmlns:xlink="http://www.w3.org/1999/xlink" version="1.1" x="0px" y="0px" viewBox="0 0 100 100" enable-background="new 0 0 100 100" xml:space="preserve"><path d="M91.022,15.607l-0.804-0.804l-1.098,0.532l-0.562-0.562l0.124-0.124c0.147-0.147,0.147-0.385,0-0.532l-0.045-0.045  c-0.147-0.147-0.385-0.147-0.532,0l-0.669,0.669c-0.147,0.147-0.147,0.385,0,0.532l0.045,0.044c0.147,0.147,0.385,0.147,0.532,0  l0.137-0.137l0.421,0.421l-1.394,0.676l-0.554-0.554l0.124-0.124c0.147-0.147,0.147-0.385,0-0.532L86.7,15.024  c-0.147-0.147-0.385-0.147-0.532,0l-0.669,0.669c-0.147,0.147-0.147,0.385,0,0.532l0.045,0.045c0.147,0.147,0.385,0.147,0.532,0  l0.137-0.137l0.412,0.412l-1.394,0.676l-0.567-0.567l0.124-0.124c0.147-0.147,0.147-0.385,0-0.532l-0.045-0.045  c-0.147-0.147-0.385-0.147-0.532,0l-0.669,0.669c-0.147,0.147-0.147,0.385,0,0.532l0.045,0.045c0.147,0.147,0.385,0.147,0.532,0  l0.137-0.137l0.425,0.425l-1.394,0.676l-0.527-0.527l0.124-0.124c0.147-0.147,0.147-0.385,0-0.532l-0.045-0.045  c-0.147-0.147-0.385-0.147-0.532,0l-0.669,0.669c-0.147,0.147-0.147,0.385,0,0.532l0.045,0.045c0.147,0.147,0.385,0.147,0.532,0  l0.137-0.137l0.385,0.385l-1.394,0.676l-0.501-0.501l0.124-0.124c0.147-0.147,0.147-0.385,0-0.532l-0.045-0.045  c-0.147-0.147-0.385-0.147-0.532,0l-0.669,0.669c-0.147,0.147-0.147,0.385,0,0.532l0.045,0.045c0.147,0.147,0.385,0.147,0.532,0  l0.137-0.137l0.359,0.359l-1.394,0.676l-0.528-0.528l0.124-0.124c0.147-0.147,0.147-0.385,0-0.532l-0.045-0.045  c-0.147-0.147-0.385-0.147-0.532,0l-0.669,0.669c-0.147,0.147-0.147,0.385,0,0.532l0.045,0.045c0.147,0.147,0.385,0.147,0.532,0  l0.137-0.137l0.386,0.386l-0.75,0.364l-0.321,2.388l-0.646,0.646l0,0l-0.316,0.302l-0.22,0.212l-2.615,2.505l-0.22,0.212  l-2.12,2.031l-0.22,0.212l-2.121,2.032l-0.22,0.212l-2.026,1.94l-0.22,0.212l-1.799,1.724l-0.22,0.212l-1.828,1.75l-0.22,0.212  l-1.559,1.492l-0.22,0.212l-1.678,1.609l-0.22,0.212l-1.492,1.429l-0.22,0.212l-1.357,1.299l-0.22,0.212l-1.212,1.16l-0.22,0.212  l-1.212,1.16l-0.22,0.212l-1.117,1.071l-0.22,0.212l-1.117,1.071l-0.222,0.21l-0.902,0.865l-0.22,0.211l-0.488,0.468l-7.061-1.084  c-0.562-0.086-1.121,0.176-1.414,0.663l-5.592,9.3L8.454,66.953c-1.11,0.3-1.406,1.735-0.506,2.451L21.3,80.021  c0.494,0.393,1.204,0.352,1.651-0.094c0.366-0.366,0.92-0.466,1.391-0.253l13.756,6.237c0.698,0.316,1.52,0.014,1.847-0.678  l7.527-15.943l16.034-5.729c0.803-0.287,1.303-1.088,1.209-1.935c-0.101-0.905-0.847-1.6-1.757-1.635  c-3.375-0.127-11.067-0.438-12.185-0.662c-0.661-0.132-0.784-1.064-0.726-2.033l0.632-0.659l0.212-0.22l0.826-0.863l0.211-0.22  l0.98-1.023l0.212-0.22l0.865-0.902l0.21-0.222l1.071-1.117l0.212-0.22l1.071-1.117l0.212-0.22l1.16-1.212l0.212-0.22l1.16-1.212  l0.212-0.22l1.299-1.357l0.212-0.22l1.429-1.492l0.212-0.22l1.609-1.678l0.212-0.22l1.492-1.559l0.212-0.22l1.75-1.828l0.212-0.22  l1.724-1.799l0.212-0.22l1.94-2.026l0.212-0.22l2.032-2.121l0.212-0.22l2.031-2.12l0.212-0.22l2.506-2.615l0.212-0.22l0.302-0.317  l1.175-1.126l2.906,0.014l0.505-1.102l8.265-8.265L91.022,15.607z M39.714,78.445c-0.386,0.386-1.011,0.386-1.397,0  c-0.386-0.386-0.386-1.011,0-1.397c0.386-0.386,1.011-0.386,1.397,0C40.099,77.434,40.099,78.059,39.714,78.445z M41.96,74.129  c-0.363,0.362-0.95,0.363-1.313,0c-0.362-0.363-0.362-0.95,0-1.313c0.363-0.362,0.95-0.362,1.313,0  C42.322,73.178,42.322,73.766,41.96,74.129z M42.306,65.876l-0.064,0.064c-0.21,0.21-0.551,0.21-0.761,0l-3.975-3.975  c-0.21-0.21-0.21-0.551,0-0.761l0.064-0.064c0.21-0.21,0.551-0.21,0.761,0l3.975,3.975C42.516,65.325,42.516,65.666,42.306,65.876z   M44.392,70.54c-0.406,0.406-1.063,0.406-1.469,0c-0.406-0.406-0.406-1.063,0-1.469c0.406-0.406,1.063-0.406,1.469,0  C44.798,69.477,44.798,70.134,44.392,70.54z M44.862,63.262l-0.064,0.064c-0.21,0.21-0.551,0.21-0.761,0l-3.975-3.975  c-0.21-0.21-0.21-0.551,0-0.761l0.064-0.064c0.21-0.21,0.551-0.21,0.761,0l3.975,3.975C45.072,62.711,45.072,63.052,44.862,63.262z   M47.447,60.677l-0.064,0.064c-0.21,0.21-0.551,0.21-0.761,0l-3.975-3.975c-0.21-0.21-0.21-0.551,0-0.761l0.064-0.064  c0.21-0.21,0.551-0.21,0.761,0l3.975,3.975C47.657,60.126,47.657,60.467,47.447,60.677z M80.064,22.046  c-0.244,0.244-0.638,0.244-0.882,0c-0.244-0.244-0.244-0.638,0-0.882c0.244-0.244,0.638-0.244,0.882,0  C80.307,21.408,80.307,21.803,80.064,22.046z M81.94,21.052c-0.244,0.244-0.638,0.244-0.882,0c-0.244-0.244-0.244-0.638,0-0.882  c0.244-0.244,0.639-0.244,0.882,0C82.184,20.414,82.184,20.809,81.94,21.052z M83.816,20.058c-0.244,0.244-0.638,0.244-0.882,0  c-0.244-0.244-0.244-0.638,0-0.882c0.244-0.244,0.638-0.244,0.882,0C84.06,19.42,84.06,19.814,83.816,20.058z M85.692,19.064  c-0.244,0.244-0.638,0.244-0.882,0s-0.244-0.638,0-0.882c0.244-0.244,0.638-0.244,0.882,0C85.936,18.425,85.936,18.82,85.692,19.064  z M87.569,18.07c-0.244,0.244-0.638,0.244-0.882,0c-0.244-0.244-0.244-0.638,0-0.882c0.244-0.244,0.638-0.244,0.882,0  C87.812,17.431,87.812,17.826,87.569,18.07z M89.445,17.075c-0.244,0.244-0.638,0.244-0.882,0c-0.244-0.244-0.244-0.638,0-0.882  c0.244-0.244,0.638-0.244,0.882,0C89.689,16.437,89.689,16.832,89.445,17.075z"></path></svg>