<?xml version="1.0" encoding="utf-8"?>
<!-- Generator: Adobe Illustrator 23.0.2, SVG Export Plug-In . SVG Version: 6.00 Build 0)  -->
<svg version="1.1" id="Layer_1" xmlns="http://www.w3.org/2000/svg" xmlns:xlink="http://www.w3.org/1999/xlink" x="0px" y="0px"
	 viewBox="0 0 824.4 236.7" style="enable-background:new 0 0 824.4 236.7;" xml:space="preserve">
<style type="text/css">
	.st0{fill:#25A805;}
	.st1{fill:#686868;}
</style>
<path d="M250.8,15l-2.4-2.4l-3.3,1.6l-1.7-1.7l0.4-0.4c0.4-0.4,0.4-1.2,0-1.6l-0.1-0.1c-0.4-0.4-1.2-0.4-1.6,0l-2,2
	c-0.4,0.4-0.4,1.2,0,1.6l0.1,0.1c0.4,0.4,1.2,0.4,1.6,0l0.4-0.4l1.3,1.3l-4.2,2l-1.7-1.7l0.4-0.4c0.4-0.4,0.4-1.2,0-1.6l-0.1-0.1
	c-0.4-0.4-1.2-0.4-1.6,0l-2,2c-0.4,0.4-0.4,1.2,0,1.6l0.1,0.1c0.4,0.4,1.2,0.4,1.6,0l0.4-0.4l1.2,1.2l-4.2,2l-1.7-1.7l0.4-0.4
	c0.4-0.4,0.4-1.2,0-1.6l-0.1-0.1c-0.4-0.4-1.2-0.4-1.6,0l-2,2c-0.4,0.4-0.4,1.2,0,1.6l0.1,0.1c0.4,0.4,1.2,0.4,1.6,0l0.4-0.4
	l1.3,1.3l-4.2,2l-1.6-1.6l0.4-0.4c0.4-0.4,0.4-1.2,0-1.6l-0.1-0.1c-0.4-0.4-1.2-0.4-1.6,0l-2,2c-0.4,0.4-0.4,1.2,0,1.6l0.1,0.1
	c0.4,0.4,1.2,0.4,1.6,0l0.4-0.4l1.2,1.2l-4.2,2l-1.5-1.5l0.4-0.4c0.4-0.4,0.4-1.2,0-1.6l-0.1-0.1c-0.4-0.4-1.2-0.4-1.6,0l-2,2
	c-0.4,0.4-0.4,1.2,0,1.6l0.1,0.1c0.4,0.4,1.2,0.4,1.6,0l0.4-0.4l1.1,1.1l-4.2,2l-1.6-1.6l0.4-0.4c0.4-0.4,0.4-1.2,0-1.6l-0.1-0.1
	c-0.4-0.4-1.2-0.4-1.6,0l-2,2c-0.4,0.4-0.4,1.2,0,1.6l0.1,0.1c0.4,0.4,1.2,0.4,1.6,0l0.4-0.4l1.2,1.2l-2.2,1.1l-1,7.2l-1.9,1.9l0,0
	l-0.9,0.9l-0.7,0.6l-7.8,7.5l-0.7,0.6l-6.4,6.1l-0.7,0.6l-6.4,6.1l-0.7,0.6l-6.1,5.8l-0.7,0.6l-5.4,5.2l-0.7,0.6l-5.5,5.2l-0.7,0.6
	l-4.7,4.5l-0.7,0.6l-5,4.8l-0.7,0.6l-4.5,4.3l-0.7,0.6l-3.8,4.5l-0.7,0.6l-3.6,3.5l-0.7,0.6l-3.6,3.5l-0.7,0.6l-3.4,3.2l-0.7,0.6
	l-3.4,3.2l-0.7,0.6l-2.7,2.6l-0.7,0.6l-1.5,1.4l-21.2-3.3c-1.7-0.3-3.4,0.5-4.2,2l-16.8,27.9L3.1,169c-3.3,0.9-4.2,5.2-1.5,7.4
	l40.1,31.9c1.5,1.2,3.6,1.1,5-0.3c1.1-1.1,2.8-1.4,4.2-0.8l41.3,18.7c2.1,0.9,4.6,0,5.5-2l22.6-47.8l48.1-17.2
	c2.4-0.9,3.9-3.3,3.6-5.8c-0.3-2.7-2.5-4.8-5.3-4.9c-10.1-0.4-33.2-1.3-36.6-2c-2-0.4-2.4-3.2-2.2-6.1l1.9-2l0.6-0.7l2.5-2.6
	l0.6-0.7l2.9-3.1l0.6-0.7l2.6-2.7l0.6-0.7l3.2-3.4l0.6-0.7l3.2-3.4l0.6-0.7l3.5-3.6l0.6-0.7l3.5-3.6l0.6-0.7l3.9-4.1l0.6-0.7
	l4.3-4.5l0.6-0.7l4.8-5l0.6-0.7l4.5-4.7l0.6-0.7l5.2-5.5l0.6-0.7l5.2-5.4l0.6-0.7l5.8-6.1l0.6-0.7l6.1-6.4l0.6-0.7l6.1-6.4l0.6-0.7
	l7.5-7.8l0.6-0.7l0.9-1l3.5-3.4h8.7l1.5-3.3l24.8-24.8L250.8,15z M96.9,203.5c-1.2,1.2-3,1.2-4.2,0s-1.2-3,0-4.2s3-1.2,4.2,0
	C98.1,200.4,98.1,202.3,96.9,203.5z M103.7,190.5c-1.1,1.1-2.8,1.1-3.9,0s-1.1-2.8,0-3.9c1.1-1.1,2.8-1.1,3.9,0
	C104.7,187.7,104.7,189.4,103.7,190.5z M104.7,165.8l-0.2,0.2c-0.6,0.6-1.7,0.6-2.3,0l-11.9-12c-0.6-0.6-0.6-1.7,0-2.3l0.2-0.2
	c0.6-0.6,1.7-0.6,2.3,0l11.9,11.9C105.3,164.1,105.3,165.1,104.7,165.8z M110.9,179.8c-1.2,1.2-3.2,1.2-4.4,0
	c-1.2-1.2-1.2-3.2,0-4.4s3.2-1.2,4.4,0C112.2,176.6,112.2,178.5,110.9,179.8z M112.4,157.9l-0.2,0.2c-0.6,0.6-1.7,0.6-2.3,0
	L98,146.2c-0.6-0.6-0.6-1.7,0-2.3l0.2-0.2c0.6-0.6,1.7-0.6,2.3,0l11.9,11.9C113,156.3,113,157.3,112.4,157.9z M120.1,150.2l-0.2,0.2
	c-0.6,0.6-1.7,0.6-2.3,0l-11.9-11.9c-0.6-0.6-0.6-1.7,0-2.3l0.2-0.2c0.6-0.6,1.7-0.6,2.3,0l11.9,11.9
	C120.7,148.5,120.7,149.5,120.1,150.2z M218,34.3c-0.7,0.7-1.9,0.7-2.6,0s-0.7-1.9,0-2.6s1.9-0.7,2.6,0
	C218.7,32.4,218.7,33.5,218,34.3z M223.6,31.3c-0.7,0.7-1.9,0.7-2.6,0s-0.7-1.9,0-2.6s1.9-0.7,2.6,0
	C224.3,29.4,224.3,30.6,223.6,31.3z M229.2,28.3c-0.7,0.7-1.9,0.7-2.6,0s-0.7-1.9,0-2.6s1.9-0.7,2.6,0C230,26.4,230,27.6,229.2,28.3
	z M234.8,25.3c-0.7,0.7-1.9,0.7-2.6,0s-0.7-1.9,0-2.6s1.9-0.7,2.6,0C235.6,23.4,235.6,24.6,234.8,25.3z M240.5,22.3
	c-0.7,0.7-1.9,0.7-2.6,0s-0.7-1.9,0-2.6s1.9-0.7,2.6,0C241.2,20.4,241.2,21.6,240.5,22.3z M246.1,19.4c-0.7,0.7-1.9,0.7-2.6,0
	c-0.7-0.7-0.7-1.9,0-2.6c0.7-0.7,1.9-0.7,2.6,0C246.8,17.4,246.8,18.6,246.1,19.4z"/>
<g>
	<path class="st0" d="M275.5,98.7v-0.3c0-29.4,22.5-54.3,54.1-54.3c18.3,0,29.5,5.1,40.3,14.2l-11.7,13.9
		c-8.1-6.9-16-11.2-29.4-11.2c-19.3,0-34,16.9-34,37v0.3c0,21.6,14.2,37.5,35.7,37.5c9.9,0,18.9-3.2,25.3-8v-19.6H329v-16h44.7v44.1
		c-10.3,8.8-25.2,16.3-43.8,16.3C297.1,152.6,275.5,129.3,275.5,98.7z"/>
	<path d="M394,99.7h41.7v12.1H394V99.7z"/>
	<path d="M453.4,135.6l7.4-8.7c10.9,9.9,21.4,14.8,36,14.8c14.1,0,23.4-7.5,23.4-17.8v-0.3c0-9.7-5.2-15.3-27.3-19.9
		c-24.1-5.2-35.2-13-35.2-30.3V73c0-16.5,14.5-28.6,34.5-28.6c15.3,0,26.2,4.3,36.9,12.9l-6.9,9.1c-9.9-7.9-19.6-11.4-30.4-11.4
		c-13.6,0-22.3,7.5-22.3,16.9v0.3c0,9.9,5.4,15.4,28.5,20.4c23.4,5.1,34.2,13.6,34.2,29.7v0.3c0,18-15,29.7-35.8,29.7
		C479.6,152.3,466,146.8,453.4,135.6z"/>
	<path d="M554.3,41.4h11.5v45.4c5.1-8.4,13.2-15.1,26.5-15.1c18.7,0,29.7,12.6,29.7,31v48.1h-11.5v-45.3c0-14.4-7.8-23.4-21.4-23.4
		c-13.3,0-23.2,9.7-23.2,24.3v44.4h-11.5L554.3,41.4L554.3,41.4z"/>
	<path d="M641.9,112.5v-0.3c0-21.9,17.1-40.5,40.5-40.5c23.2,0,40.3,18.3,40.3,40.2v0.3c0,21.9-17.2,40.5-40.6,40.5
		C658.9,152.6,641.9,134.4,641.9,112.5z M710.9,112.5v-0.3c0-16.6-12.4-30.3-28.8-30.3c-16.8,0-28.3,13.6-28.3,30v0.3
		c0,16.6,12.3,30.1,28.6,30.1C699.2,142.3,710.9,128.8,710.9,112.5z"/>
	<path d="M743.6,73.3h11.5v15.6c6.3-9.3,15.4-17.2,29.7-17.2c18.6,0,37,14.7,37,40.2v0.3c0,25.3-18.3,40.3-37,40.3
		c-14.4,0-23.7-7.8-29.7-16.5v38.8h-11.5V73.3z M810.1,112.3V112c0-18.3-12.6-30-27.3-30c-14.4,0-28,12.1-28,29.8v0.3
		c0,18,13.6,30,28,30C797.8,142.2,810.1,131.1,810.1,112.3z"/>
</g>
<g>
	<path class="st1" d="M286.6,194.2h-7V192h16.5v2.2h-7V213h-2.4v-18.8H286.6z"/>
	<path class="st1" d="M306.7,191.1h2.3v9.1c1-1.7,2.6-3,5.3-3c3.7,0,5.9,2.5,5.9,6.2v9.6h-2.3v-9c0-2.9-1.6-4.7-4.3-4.7
		c-2.7,0-4.6,2-4.6,4.9v8.9h-2.3V191.1z"/>
	<path class="st1" d="M339.2,211.4c2.1,0,3.6-0.9,4.9-2.2l1.4,1.3c-1.6,1.7-3.5,2.9-6.4,2.9c-4.3,0-7.7-3.3-7.7-8.1
		c0-4.5,3.1-8.1,7.4-8.1c4.6,0,7.2,3.7,7.2,8.2c0,0.2,0,0.5,0,0.8h-12.2C334.1,209.5,336.5,211.4,339.2,211.4z M343.8,204.3
		c-0.3-2.8-1.9-5.2-4.9-5.2c-2.7,0-4.7,2.2-5,5.2H343.8z"/>
	<path class="st1" d="M373,202.6L373,202.6c0-5.8,4.2-10.9,10.5-10.9c3.5,0,5.7,1,7.8,2.8l-1.5,1.8c-1.6-1.4-3.4-2.4-6.4-2.4
		c-4.6,0-8,3.9-8,8.6v0.1c0,5,3.2,8.7,8.3,8.7c2.4,0,4.6-0.9,6.1-2.1V204h-6.4v-2.1h8.7v8.4c-1.9,1.7-4.9,3.2-8.4,3.2
		C377,213.4,373,208.6,373,202.6z"/>
	<path class="st1" d="M403.6,202.8h8.3v2.4h-8.3V202.8z"/>
	<path class="st1" d="M422.6,210l1.5-1.7c2.2,2,4.3,3,7.2,3c2.8,0,4.7-1.5,4.7-3.6v-0.1c0-2-1-3.1-5.5-4c-4.8-1.1-7-2.6-7-6.1v-0.1
		c0-3.3,2.9-5.7,6.9-5.7c3.1,0,5.2,0.9,7.4,2.6l-1.4,1.8c-2-1.6-3.9-2.3-6.1-2.3c-2.7,0-4.5,1.5-4.5,3.4v0.1c0,2,1.1,3.1,5.7,4.1
		c4.7,1,6.8,2.7,6.8,5.9v0.1c0,3.6-3,5.9-7.2,5.9C427.9,213.3,425.1,212.2,422.6,210z"/>
	<path class="st1" d="M449,205.3L449,205.3c0-4.4,3.4-8.2,8.1-8.2c4.6,0,8.1,3.7,8.1,8v0.1c0,4.4-3.4,8.1-8.1,8.1
		C452.4,213.4,449,209.7,449,205.3z M462.8,205.3L462.8,205.3c0-3.4-2.5-6.1-5.8-6.1c-3.4,0-5.7,2.7-5.7,6v0.1c0,3.3,2.5,6,5.7,6
		C460.5,211.3,462.8,208.6,462.8,205.3z"/>
	<path class="st1" d="M476.3,207.1v-9.6h2.3v9.1c0,2.9,1.6,4.7,4.3,4.7c2.6,0,4.7-2,4.7-4.9v-8.9h2.3V213h-2.3v-2.7
		c-1.1,1.7-2.6,3-5.3,3C478.5,213.3,476.3,210.8,476.3,207.1z"/>
	<path class="st1" d="M502.2,197.5h2.3v2.7c1-1.7,2.6-3,5.3-3c3.8,0,5.9,2.5,5.9,6.2v9.6h-2.3v-9c0-2.9-1.6-4.7-4.3-4.7
		s-4.7,2-4.7,4.9v8.9h-2.3L502.2,197.5L502.2,197.5z"/>
	<path class="st1" d="M526.9,205.3L526.9,205.3c0-5.1,3.7-8.1,7.4-8.1c2.9,0,4.7,1.6,5.9,3.3v-9.4h2.3V213h-2.3v-3.1
		c-1.3,1.9-3.1,3.5-5.9,3.5C530.6,213.3,526.9,210.4,526.9,205.3z M540.4,205.3L540.4,205.3c0-3.6-2.7-6-5.6-6c-3,0-5.5,2.2-5.5,6
		v0.1c0,3.7,2.5,6,5.5,6C537.6,211.3,540.4,208.8,540.4,205.3z"/>
	<path class="st1" d="M570.1,205.3L570.1,205.3c0-4.4,3.4-8.2,8.1-8.2c4.6,0,8.1,3.7,8.1,8v0.1c0,4.4-3.4,8.1-8.1,8.1
		C573.5,213.4,570.1,209.7,570.1,205.3z M583.9,205.3L583.9,205.3c0-3.4-2.5-6.1-5.8-6.1c-3.4,0-5.7,2.7-5.7,6v0.1
		c0,3.3,2.5,6,5.7,6C581.6,211.3,583.9,208.6,583.9,205.3z"/>
	<path class="st1" d="M598.5,199.5h-2.1v-2h2.1v-1.3c0-1.8,0.5-3.1,1.3-4c0.8-0.8,1.9-1.2,3.3-1.2c1.1,0,1.8,0.1,2.5,0.4v2
		c-0.8-0.2-1.5-0.4-2.2-0.4c-1.8,0-2.7,1.1-2.7,3.3v1.3h4.9v2h-4.8V213h-2.3V199.5z"/>
	<path class="st1" d="M632.8,208.9v-9.4h-2.2v-2h2.2v-4.7h2.3v4.7h4.9v2h-4.9v9.1c0,1.9,1,2.6,2.6,2.6c0.8,0,1.4-0.1,2.2-0.5v2
		c-0.8,0.4-1.7,0.7-2.8,0.7C634.7,213.3,632.8,212,632.8,208.9z"/>
	<path class="st1" d="M651.3,191.1h2.3v9.1c1-1.7,2.6-3,5.3-3c3.8,0,5.9,2.5,5.9,6.2v9.6h-2.3v-9c0-2.9-1.6-4.7-4.3-4.7
		s-4.7,2-4.7,4.9v8.9h-2.3L651.3,191.1L651.3,191.1z"/>
	<path class="st1" d="M683.8,211.4c2.1,0,3.6-0.9,4.9-2.2l1.4,1.3c-1.6,1.7-3.4,2.9-6.4,2.9c-4.3,0-7.7-3.3-7.7-8.1
		c0-4.5,3.1-8.1,7.4-8.1c4.6,0,7.2,3.7,7.2,8.2c0,0.2,0,0.5,0,0.8h-12.3C678.6,209.5,681,211.4,683.8,211.4z M688.3,204.3
		c-0.3-2.8-1.9-5.2-4.9-5.2c-2.7,0-4.7,2.2-5,5.2H688.3z"/>
	<path class="st1" d="M716.7,211l1.2-1.7c1.7,1.3,3.5,2,5.4,2s3.2-1,3.2-2.5v-0.1c0-1.6-1.8-2.2-3.9-2.7c-2.4-0.7-5.1-1.5-5.1-4.4
		v-0.1c0-2.7,2.2-4.4,5.3-4.4c1.9,0,4,0.7,5.6,1.7l-1,1.7c-1.4-0.9-3.1-1.5-4.6-1.5c-1.8,0-3,1-3,2.2v0.1c0,1.5,1.9,2,4,2.7
		c2.4,0.7,5,1.7,5,4.4v0.1c0,2.9-2.4,4.6-5.5,4.6C720.9,213.3,718.5,212.4,716.7,211z"/>
	<path class="st1" d="M740.6,208.9v-9.4h-2.2v-2h2.2v-4.7h2.3v4.7h4.9v2h-4.9v9.1c0,1.9,1,2.6,2.6,2.6c0.8,0,1.4-0.1,2.2-0.5v2
		c-0.8,0.4-1.7,0.7-2.8,0.7C742.5,213.3,740.6,212,740.6,208.9z"/>
	<path class="st1" d="M757.9,208.5L757.9,208.5c0-3.4,2.7-5.1,6.6-5.1c2,0,3.4,0.3,4.7,0.7v-0.5c0-2.8-1.7-4.2-4.6-4.2
		c-1.8,0-3.3,0.5-4.7,1.1l-0.7-1.9c1.7-0.8,3.4-1.3,5.6-1.3c2.2,0,3.9,0.6,5,1.7c1.1,1.1,1.6,2.6,1.6,4.6v9.5h-2.3v-2.3
		c-1.1,1.4-2.8,2.6-5.6,2.6C760.8,213.3,757.9,211.7,757.9,208.5z M769.3,207.3v-1.4c-1.1-0.3-2.6-0.7-4.5-0.7
		c-2.9,0-4.5,1.3-4.5,3.1v0.1c0,2,1.8,3.1,3.9,3.1C767,211.5,769.3,209.8,769.3,207.3z"/>
	<path class="st1" d="M783.5,215.7l1-1.8c1.8,1.3,3.7,2,6,2c3.4,0,5.6-1.9,5.6-5.5v-1.8c-1.4,1.8-3.2,3.3-6.1,3.3
		c-3.7,0-7.3-2.8-7.3-7.3v-0.1c0-4.5,3.6-7.3,7.3-7.3c2.9,0,4.8,1.4,6.1,3.1v-2.8h2.3v12.8c0,2.4-0.7,4.2-2,5.5
		c-1.4,1.4-3.5,2.1-5.9,2.1C787.9,217.9,785.5,217.1,783.5,215.7z M796.2,204.5L796.2,204.5c0-3.2-2.8-5.3-5.7-5.3s-5.4,2-5.4,5.2
		v0.1c0,3.1,2.5,5.3,5.4,5.3C793.4,209.8,796.2,207.6,796.2,204.5z"/>
	<path class="st1" d="M817.6,211.4c2.1,0,3.6-0.9,4.9-2.2l1.4,1.3c-1.6,1.7-3.4,2.9-6.4,2.9c-4.3,0-7.7-3.3-7.7-8.1
		c0-4.5,3.1-8.1,7.4-8.1c4.6,0,7.2,3.7,7.2,8.2c0,0.2,0,0.5,0,0.8h-12.3C812.5,209.5,814.8,211.4,817.6,211.4z M822.1,204.3
		c-0.3-2.8-1.9-5.2-4.9-5.2c-2.7,0-4.7,2.2-5,5.2H822.1z"/>
</g>
</svg>
